{
	"asset":{
		"version":"2.0",
		"generator":"Maxon Cinema 4D 2026.1.4 (#200000219)"
	},
	"scenes":[{
		"nodes":[0,
		1]
	}],
	"nodes":[{
		"name":"tronc",
		"children":[2]
	},
	{
		"name":"leaf-all",
		"translation":[0.5010557770729065,
		2.593715190887451,
		0.007967554032802582],
		"rotation":[0.005658057518303394,
		0.05779228359460831,
		0.3230626881122589,
		-0.9445943832397461],
		"scale":[1.0,
		1.0,
		1.0],
		"children":[3,
		4,
		5]
	},
	{
		"mesh":0,
		"name":"tronc",
		"translation":[0.0,
		1.258920431137085,
		0.0],
		"rotation":[0.0,
		0.0,
		0.0,
		-1.0],
		"scale":[1.0,
		1.0,
		1.0]
	},
	{
		"name":"leaf-small",
		"translation":[-0.018309127539396287,
		0.12276343256235123,
		8.296271613420533e-16],
		"rotation":[0.013658835552632809,
		-0.18417903780937196,
		0.07268531620502472,
		0.9801062941551209],
		"scale":[1.0,
		1.0,
		1.0],
		"children":[6,
		7,
		8,
		9,
		10]
	},
	{
		"name":"leaf-medium",
		"translation":[0.009592527523636818,
		-0.06431828439235687,
		-3.79696282892133e-16],
		"rotation":[0.02834896184504032,
		-0.38226425647735598,
		0.068308524787426,
		0.9210886359214783],
		"scale":[1.0,
		1.0,
		1.0],
		"children":[11,
		12,
		13,
		14,
		15]
	},
	{
		"name":"leaf-big",
		"translation":[0.025073209777474405,
		-0.16811688244342805,
		-6.661338147750939e-16],
		"rotation":[0.0,
		0.0,
		0.07395754754543305,
		0.9972614049911499],
		"scale":[1.0,
		1.0,
		1.0],
		"children":[16,
		17,
		18,
		19,
		20]
	},
	{
		"name":"leaf 0",
		"translation":[0.0,
		0.0,
		-0.0851372629404068],
		"rotation":[0.0,
		1.2246468525851679e-16,
		0.0,
		1.0],
		"scale":[1.0,
		1.0,
		1.0],
		"children":[21]
	},
	{
		"name":"leaf 1",
		"translation":[-0.08097034692764282,
		0.0,
		-0.026308860629796983],
		"rotation":[0.0,
		0.5877852439880371,
		0.0,
		0.80901700258255],
		"scale":[1.0,
		1.0,
		1.0],
		"children":[22]
	},
	{
		"name":"leaf 2",
		"translation":[-0.05004242807626724,
		0.0,
		0.06887749582529068],
		"rotation":[0.0,
		0.9510565400123596,
		0.0,
		0.30901700258255007],
		"scale":[1.0,
		1.0,
		1.0],
		"children":[23]
	},
	{
		"name":"leaf 3",
		"translation":[0.05004242807626724,
		0.0,
		0.06887749582529068],
		"rotation":[0.0,
		0.9510565400123596,
		0.0,
		-0.30901700258255007],
		"scale":[1.0,
		1.0,
		1.0],
		"children":[24]
	},
	{
		"name":"leaf 4",
		"translation":[0.08097034692764282,
		0.0,
		-0.026308860629796983],
		"rotation":[0.0,
		0.5877852439880371,
		0.0,
		-0.80901700258255],
		"scale":[1.0,
		1.0,
		1.0],
		"children":[25]
	},
	{
		"name":"leaf 0",
		"translation":[0.0,
		0.0,
		-0.12882038950920106],
		"rotation":[0.0,
		0.0,
		1.2246468525851679e-16,
		1.0],
		"scale":[1.0,
		1.0,
		1.0],
		"children":[26]
	},
	{
		"name":"leaf 1",
		"translation":[-0.122515469789505,
		0.0,
		-0.03980768844485283],
		"rotation":[-7.198293111792428e-17,
		-0.5877852439880371,
		-9.907600785479212e-17,
		-0.80901700258255],
		"scale":[1.0,
		1.0,
		1.0],
		"children":[27]
	},
	{
		"name":"leaf 2",
		"translation":[-0.0757187232375145,
		0.0,
		0.10421788692474365],
		"rotation":[0.0,
		0.9510565400123596,
		0.0,
		0.30901700258255007],
		"scale":[1.0,
		1.0,
		1.0],
		"children":[28]
	},
	{
		"name":"leaf 3",
		"translation":[0.0757187232375145,
		0.0,
		0.10421788692474365],
		"rotation":[-1.1647082866083915e-16,
		-0.9510565400123596,
		3.7843668534256179e-17,
		0.30901700258255007],
		"scale":[1.0,
		1.0,
		1.0],
		"children":[29]
	},
	{
		"name":"leaf 4",
		"translation":[0.122515469789505,
		0.0,
		-0.03980768844485283],
		"rotation":[-7.198293111792428e-17,
		-0.5877852439880371,
		9.907600785479212e-17,
		0.80901700258255],
		"scale":[1.0,
		1.0,
		1.0],
		"children":[30]
	},
	{
		"name":"leaf 0",
		"translation":[0.0,
		0.0,
		-0.15043407678604127],
		"rotation":[0.0,
		0.0,
		0.0,
		-1.0],
		"scale":[1.0,
		1.0,
		1.0],
		"children":[31]
	},
	{
		"name":"leaf 1",
		"translation":[-0.14307130873203278,
		0.0,
		-0.046486686915159228],
		"rotation":[0.0,
		0.5877852439880371,
		0.0,
		0.80901700258255],
		"scale":[1.0,
		1.0,
		1.0],
		"children":[32]
	},
	{
		"name":"leaf 2",
		"translation":[-0.08842293173074722,
		0.0,
		0.12170372158288956],
		"rotation":[0.0,
		0.9510565400123596,
		0.0,
		0.30901700258255007],
		"scale":[1.0,
		1.0,
		1.0],
		"children":[33]
	},
	{
		"name":"leaf 3",
		"translation":[0.08842293173074722,
		0.0,
		0.12170372158288956],
		"rotation":[0.0,
		0.9510565400123596,
		0.0,
		-0.30901700258255007],
		"scale":[1.0,
		1.0,
		1.0],
		"children":[34]
	},
	{
		"name":"leaf 4",
		"translation":[0.14307130873203278,
		0.0,
		-0.046486686915159228],
		"rotation":[0.0,
		0.5877852439880371,
		0.0,
		-0.80901700258255],
		"scale":[1.0,
		1.0,
		1.0],
		"children":[35]
	},
	{
		"name":"leaf",
		"translation":[-0.041752930730581287,
		-0.08146852999925614,
		-0.13416726887226106],
		"rotation":[0.0657293051481247,
		-0.05061743035912514,
		0.07785842567682266,
		0.9935067296028137],
		"scale":[1.0,
		1.0,
		1.0],
		"children":[36]
	},
	{
		"name":"leaf",
		"translation":[-0.041752930730581287,
		-0.08146852999925614,
		-0.13416726887226106],
		"rotation":[0.0657293051481247,
		-0.05061743035912514,
		0.07785842567682266,
		0.9935067296028137],
		"scale":[1.0,
		1.0,
		1.0],
		"children":[37]
	},
	{
		"name":"leaf",
		"translation":[-0.041752930730581287,
		-0.08146852999925614,
		-0.13416726887226106],
		"rotation":[0.0657293051481247,
		-0.05061743035912514,
		0.07785842567682266,
		0.9935067296028137],
		"scale":[1.0,
		1.0,
		1.0],
		"children":[38]
	},
	{
		"name":"leaf",
		"translation":[-0.041752930730581287,
		-0.08146852999925614,
		-0.13416726887226106],
		"rotation":[0.0657293051481247,
		-0.05061743035912514,
		0.07785842567682266,
		0.9935067296028137],
		"scale":[1.0,
		1.0,
		1.0],
		"children":[39]
	},
	{
		"name":"leaf",
		"translation":[-0.041752930730581287,
		-0.08146852999925614,
		-0.13416726887226106],
		"rotation":[0.0657293051481247,
		-0.05061743035912514,
		0.07785842567682266,
		0.9935067296028137],
		"scale":[1.0,
		1.0,
		1.0],
		"children":[40]
	},
	{
		"name":"leaf",
		"translation":[-0.06727200746536255,
		-0.09841184318065644,
		-0.19989195466041566],
		"rotation":[0.0657293051481247,
		-0.05061743035912514,
		0.07785842567682266,
		0.9935067296028137],
		"scale":[1.0,
		1.0,
		1.0],
		"children":[41]
	},
	{
		"name":"leaf",
		"translation":[-0.06727200746536255,
		-0.09841184318065644,
		-0.19989195466041566],
		"rotation":[0.0657293051481247,
		-0.05061743035912514,
		0.07785842567682266,
		0.9935067296028137],
		"scale":[1.0,
		1.0,
		1.0],
		"children":[42]
	},
	{
		"name":"leaf",
		"translation":[-0.06727200746536255,
		-0.09841184318065644,
		-0.19989195466041566],
		"rotation":[0.0657293051481247,
		-0.05061743035912514,
		0.07785842567682266,
		0.9935067296028137],
		"scale":[1.0,
		1.0,
		1.0],
		"children":[43]
	},
	{
		"name":"leaf",
		"translation":[-0.06727200746536255,
		-0.09841184318065644,
		-0.19989195466041566],
		"rotation":[0.0657293051481247,
		-0.05061743035912514,
		0.07785842567682266,
		0.9935067296028137],
		"scale":[1.0,
		1.0,
		1.0],
		"children":[44]
	},
	{
		"name":"leaf",
		"translation":[-0.06727200746536255,
		-0.09841184318065644,
		-0.19989195466041566],
		"rotation":[0.0657293051481247,
		-0.05061743035912514,
		0.07785842567682266,
		0.9935067296028137],
		"scale":[1.0,
		1.0,
		1.0],
		"children":[45]
	},
	{
		"name":"leaf",
		"translation":[-0.07874424755573273,
		-0.1230119913816452,
		-0.2376917451620102],
		"rotation":[0.0,
		0.0,
		0.07398885488510132,
		0.9972590804100037],
		"scale":[1.0,
		1.0,
		1.0],
		"children":[46]
	},
	{
		"name":"leaf",
		"translation":[-0.07874424755573273,
		-0.1230119913816452,
		-0.2376917451620102],
		"rotation":[0.0,
		0.0,
		0.07398885488510132,
		0.9972590804100037],
		"scale":[1.0,
		1.0,
		1.0],
		"children":[47]
	},
	{
		"name":"leaf",
		"translation":[-0.07874424755573273,
		-0.1230119913816452,
		-0.2376917451620102],
		"rotation":[0.0,
		0.0,
		0.07398885488510132,
		0.9972590804100037],
		"scale":[1.0,
		1.0,
		1.0],
		"children":[48]
	},
	{
		"name":"leaf",
		"translation":[-0.07874424755573273,
		-0.1230119913816452,
		-0.2376917451620102],
		"rotation":[0.0,
		0.0,
		0.07398885488510132,
		0.9972590804100037],
		"scale":[1.0,
		1.0,
		1.0],
		"children":[49]
	},
	{
		"name":"leaf",
		"translation":[-0.07874424755573273,
		-0.1230119913816452,
		-0.2376917451620102],
		"rotation":[0.0,
		0.0,
		0.07398885488510132,
		0.9972590804100037],
		"scale":[1.0,
		1.0,
		1.0],
		"children":[50]
	},
	{
		"mesh":1,
		"name":"leaf",
		"translation":[3.508304853106701e-16,
		-1.0824674490095277e-15,
		-4.2632563192693947e-16],
		"rotation":[-0.08878696709871292,
		2.8088813597202029e-17,
		-2.5038091261587044e-18,
		-0.9960506558418274],
		"scale":[1.0,
		1.0,
		1.0]
	},
	{
		"mesh":2,
		"name":"leaf",
		"translation":[3.508304853106701e-16,
		-1.0824674490095277e-15,
		-4.2632563192693947e-16],
		"rotation":[-0.08878696709871292,
		2.8088813597202029e-17,
		-2.5038091261587044e-18,
		-0.9960506558418274],
		"scale":[1.0,
		1.0,
		1.0]
	},
	{
		"mesh":3,
		"name":"leaf",
		"translation":[3.508304853106701e-16,
		-1.0824674490095277e-15,
		-4.2632563192693947e-16],
		"rotation":[-0.08878696709871292,
		2.8088813597202029e-17,
		-2.5038091261587044e-18,
		-0.9960506558418274],
		"scale":[1.0,
		1.0,
		1.0]
	},
	{
		"mesh":4,
		"name":"leaf",
		"translation":[3.508304853106701e-16,
		-1.0824674490095277e-15,
		-4.2632563192693947e-16],
		"rotation":[-0.08878696709871292,
		2.8088813597202029e-17,
		-2.5038091261587044e-18,
		-0.9960506558418274],
		"scale":[1.0,
		1.0,
		1.0]
	},
	{
		"mesh":5,
		"name":"leaf",
		"translation":[3.508304853106701e-16,
		-1.0824674490095277e-15,
		-4.2632563192693947e-16],
		"rotation":[-0.08878696709871292,
		2.8088813597202029e-17,
		-2.5038091261587044e-18,
		-0.9960506558418274],
		"scale":[1.0,
		1.0,
		1.0]
	},
	{
		"mesh":6,
		"name":"leaf"
	},
	{
		"mesh":7,
		"name":"leaf"
	},
	{
		"mesh":8,
		"name":"leaf"
	},
	{
		"mesh":9,
		"name":"leaf"
	},
	{
		"mesh":10,
		"name":"leaf"
	},
	{
		"mesh":11,
		"name":"leaf"
	},
	{
		"mesh":12,
		"name":"leaf"
	},
	{
		"mesh":13,
		"name":"leaf"
	},
	{
		"mesh":14,
		"name":"leaf"
	},
	{
		"mesh":15,
		"name":"leaf"
	}],
	"meshes":[{
		"name":"tronc",
		"primitives":[{
			"attributes":{
				"POSITION":1
			},
			"indices":0,
			"material":0
		}]
	},
	{
		"name":"leaf",
		"primitives":[{
			"attributes":{
				"POSITION":3
			},
			"indices":2,
			"material":1
		}]
	},
	{
		"name":"leaf",
		"primitives":[{
			"attributes":{
				"POSITION":5
			},
			"indices":4,
			"material":1
		}]
	},
	{
		"name":"leaf",
		"primitives":[{
			"attributes":{
				"POSITION":7
			},
			"indices":6,
			"material":1
		}]
	},
	{
		"name":"leaf",
		"primitives":[{
			"attributes":{
				"POSITION":9
			},
			"indices":8,
			"material":1
		}]
	},
	{
		"name":"leaf",
		"primitives":[{
			"attributes":{
				"POSITION":11
			},
			"indices":10,
			"material":1
		}]
	},
	{
		"name":"leaf",
		"primitives":[{
			"attributes":{
				"POSITION":13
			},
			"indices":12,
			"material":2
		}]
	},
	{
		"name":"leaf",
		"primitives":[{
			"attributes":{
				"POSITION":15
			},
			"indices":14,
			"material":2
		}]
	},
	{
		"name":"leaf",
		"primitives":[{
			"attributes":{
				"POSITION":17
			},
			"indices":16,
			"material":2
		}]
	},
	{
		"name":"leaf",
		"primitives":[{
			"attributes":{
				"POSITION":19
			},
			"indices":18,
			"material":2
		}]
	},
	{
		"name":"leaf",
		"primitives":[{
			"attributes":{
				"POSITION":21
			},
			"indices":20,
			"material":2
		}]
	},
	{
		"name":"leaf",
		"primitives":[{
			"attributes":{
				"POSITION":23
			},
			"indices":22,
			"material":3
		}]
	},
	{
		"name":"leaf",
		"primitives":[{
			"attributes":{
				"POSITION":25
			},
			"indices":24,
			"material":3
		}]
	},
	{
		"name":"leaf",
		"primitives":[{
			"attributes":{
				"POSITION":27
			},
			"indices":26,
			"material":3
		}]
	},
	{
		"name":"leaf",
		"primitives":[{
			"attributes":{
				"POSITION":29
			},
			"indices":28,
			"material":3
		}]
	},
	{
		"name":"leaf",
		"primitives":[{
			"attributes":{
				"POSITION":31
			},
			"indices":30,
			"material":3
		}]
	}],
	"accessors":[{
		"bufferView":0,
		"type":"SCALAR",
		"componentType":5123,
		"count":16464,
		"byteOffset":0,
		"min":[0],
		"max":[2745]
	},
	{
		"bufferView":1,
		"type":"VEC3",
		"componentType":5126,
		"count":2746,
		"byteOffset":0,
		"min":[-0.19840893149375916,
		-1.25,
		-0.19743716716766358],
		"max":[0.4850674569606781,
		1.3045463562011719,
		0.19743716716766358]
	},
	{
		"bufferView":2,
		"type":"SCALAR",
		"componentType":5123,
		"count":2688,
		"byteOffset":0,
		"min":[0],
		"max":[449]
	},
	{
		"bufferView":3,
		"type":"VEC3",
		"componentType":5126,
		"count":450,
		"byteOffset":0,
		"min":[-0.23027858138084413,
		0.06998483091592789,
		-0.7167509198188782],
		"max":[0.32928234338760378,
		0.40841302275657656,
		0.13715296983718873]
	},
	{
		"bufferView":4,
		"type":"SCALAR",
		"componentType":5123,
		"count":2688,
		"byteOffset":0,
		"min":[0],
		"max":[449]
	},
	{
		"bufferView":5,
		"type":"VEC3",
		"componentType":5126,
		"count":450,
		"byteOffset":0,
		"min":[-0.23027858138084413,
		0.06998483091592789,
		-0.7167509198188782],
		"max":[0.32928234338760378,
		0.40841302275657656,
		0.13715296983718873]
	},
	{
		"bufferView":6,
		"type":"SCALAR",
		"componentType":5123,
		"count":2688,
		"byteOffset":0,
		"min":[0],
		"max":[449]
	},
	{
		"bufferView":7,
		"type":"VEC3",
		"componentType":5126,
		"count":450,
		"byteOffset":0,
		"min":[-0.23027858138084413,
		0.06998483091592789,
		-0.7167509198188782],
		"max":[0.32928234338760378,
		0.40841302275657656,
		0.13715296983718873]
	},
	{
		"bufferView":8,
		"type":"SCALAR",
		"componentType":5123,
		"count":2688,
		"byteOffset":0,
		"min":[0],
		"max":[449]
	},
	{
		"bufferView":9,
		"type":"VEC3",
		"componentType":5126,
		"count":450,
		"byteOffset":0,
		"min":[-0.23027858138084413,
		0.06998483091592789,
		-0.7167509198188782],
		"max":[0.32928234338760378,
		0.40841302275657656,
		0.13715296983718873]
	},
	{
		"bufferView":10,
		"type":"SCALAR",
		"componentType":5123,
		"count":2688,
		"byteOffset":0,
		"min":[0],
		"max":[449]
	},
	{
		"bufferView":11,
		"type":"VEC3",
		"componentType":5126,
		"count":450,
		"byteOffset":0,
		"min":[-0.23027858138084413,
		0.06998483091592789,
		-0.7167509198188782],
		"max":[0.32928234338760378,
		0.40841302275657656,
		0.13715296983718873]
	},
	{
		"bufferView":12,
		"type":"SCALAR",
		"componentType":5123,
		"count":2688,
		"byteOffset":0,
		"min":[0],
		"max":[449]
	},
	{
		"bufferView":13,
		"type":"VEC3",
		"componentType":5126,
		"count":450,
		"byteOffset":0,
		"min":[-0.34843239188194277,
		0.08345838636159897,
		-1.0837239027023316],
		"max":[0.49823394417762759,
		0.5088359713554382,
		0.20660726726055146]
	},
	{
		"bufferView":14,
		"type":"SCALAR",
		"componentType":5123,
		"count":2688,
		"byteOffset":0,
		"min":[0],
		"max":[449]
	},
	{
		"bufferView":15,
		"type":"VEC3",
		"componentType":5126,
		"count":450,
		"byteOffset":0,
		"min":[-0.34843239188194277,
		0.08345838636159897,
		-1.0837239027023316],
		"max":[0.49823394417762759,
		0.5088359713554382,
		0.20660726726055146]
	},
	{
		"bufferView":16,
		"type":"SCALAR",
		"componentType":5123,
		"count":2688,
		"byteOffset":0,
		"min":[0],
		"max":[449]
	},
	{
		"bufferView":17,
		"type":"VEC3",
		"componentType":5126,
		"count":450,
		"byteOffset":0,
		"min":[-0.34843239188194277,
		0.08345838636159897,
		-1.0837239027023316],
		"max":[0.49823394417762759,
		0.5088359713554382,
		0.20660726726055146]
	},
	{
		"bufferView":18,
		"type":"SCALAR",
		"componentType":5123,
		"count":2688,
		"byteOffset":0,
		"min":[0],
		"max":[449]
	},
	{
		"bufferView":19,
		"type":"VEC3",
		"componentType":5126,
		"count":450,
		"byteOffset":0,
		"min":[-0.34843239188194277,
		0.08345838636159897,
		-1.0837239027023316],
		"max":[0.49823394417762759,
		0.5088359713554382,
		0.20660726726055146]
	},
	{
		"bufferView":20,
		"type":"SCALAR",
		"componentType":5123,
		"count":2688,
		"byteOffset":0,
		"min":[0],
		"max":[449]
	},
	{
		"bufferView":21,
		"type":"VEC3",
		"componentType":5126,
		"count":450,
		"byteOffset":0,
		"min":[-0.34843239188194277,
		0.08345838636159897,
		-1.0837239027023316],
		"max":[0.49823394417762759,
		0.5088359713554382,
		0.20660726726055146]
	},
	{
		"bufferView":22,
		"type":"SCALAR",
		"componentType":5123,
		"count":2688,
		"byteOffset":0,
		"min":[0],
		"max":[449]
	},
	{
		"bufferView":23,
		"type":"VEC3",
		"componentType":5126,
		"count":450,
		"byteOffset":0,
		"min":[-0.23429714143276215,
		0.08048462122678757,
		-1.5505173206329346],
		"max":[0.6036727428436279,
		0.5152669548988342,
		0.2682243883609772]
	},
	{
		"bufferView":24,
		"type":"SCALAR",
		"componentType":5123,
		"count":2688,
		"byteOffset":0,
		"min":[0],
		"max":[449]
	},
	{
		"bufferView":25,
		"type":"VEC3",
		"componentType":5126,
		"count":450,
		"byteOffset":0,
		"min":[-0.23429714143276215,
		0.08048462122678757,
		-1.5505173206329346],
		"max":[0.6036727428436279,
		0.5152669548988342,
		0.2682243883609772]
	},
	{
		"bufferView":26,
		"type":"SCALAR",
		"componentType":5123,
		"count":2688,
		"byteOffset":0,
		"min":[0],
		"max":[449]
	},
	{
		"bufferView":27,
		"type":"VEC3",
		"componentType":5126,
		"count":450,
		"byteOffset":0,
		"min":[-0.23429714143276215,
		0.08048462122678757,
		-1.5505173206329346],
		"max":[0.6036727428436279,
		0.5152669548988342,
		0.2682243883609772]
	},
	{
		"bufferView":28,
		"type":"SCALAR",
		"componentType":5123,
		"count":2688,
		"byteOffset":0,
		"min":[0],
		"max":[449]
	},
	{
		"bufferView":29,
		"type":"VEC3",
		"componentType":5126,
		"count":450,
		"byteOffset":0,
		"min":[-0.23429714143276215,
		0.08048462122678757,
		-1.5505173206329346],
		"max":[0.6036727428436279,
		0.5152669548988342,
		0.2682243883609772]
	},
	{
		"bufferView":30,
		"type":"SCALAR",
		"componentType":5123,
		"count":2688,
		"byteOffset":0,
		"min":[0],
		"max":[449]
	},
	{
		"bufferView":31,
		"type":"VEC3",
		"componentType":5126,
		"count":450,
		"byteOffset":0,
		"min":[-0.23429714143276215,
		0.08048462122678757,
		-1.5505173206329346],
		"max":[0.6036727428436279,
		0.5152669548988342,
		0.2682243883609772]
	}],
	"bufferViews":[{
		"buffer":0,
		"byteOffset":0,
		"byteLength":32928,
		"target":34963
	},
	{
		"buffer":0,
		"byteOffset":32928,
		"byteLength":32952,
		"target":34962
	},
	{
		"buffer":1,
		"byteOffset":0,
		"byteLength":5376,
		"target":34963
	},
	{
		"buffer":1,
		"byteOffset":5376,
		"byteLength":5400,
		"target":34962
	},
	{
		"buffer":2,
		"byteOffset":0,
		"byteLength":5376,
		"target":34963
	},
	{
		"buffer":2,
		"byteOffset":5376,
		"byteLength":5400,
		"target":34962
	},
	{
		"buffer":3,
		"byteOffset":0,
		"byteLength":5376,
		"target":34963
	},
	{
		"buffer":3,
		"byteOffset":5376,
		"byteLength":5400,
		"target":34962
	},
	{
		"buffer":4,
		"byteOffset":0,
		"byteLength":5376,
		"target":34963
	},
	{
		"buffer":4,
		"byteOffset":5376,
		"byteLength":5400,
		"target":34962
	},
	{
		"buffer":5,
		"byteOffset":0,
		"byteLength":5376,
		"target":34963
	},
	{
		"buffer":5,
		"byteOffset":5376,
		"byteLength":5400,
		"target":34962
	},
	{
		"buffer":6,
		"byteOffset":0,
		"byteLength":5376,
		"target":34963
	},
	{
		"buffer":6,
		"byteOffset":5376,
		"byteLength":5400,
		"target":34962
	},
	{
		"buffer":7,
		"byteOffset":0,
		"byteLength":5376,
		"target":34963
	},
	{
		"buffer":7,
		"byteOffset":5376,
		"byteLength":5400,
		"target":34962
	},
	{
		"buffer":8,
		"byteOffset":0,
		"byteLength":5376,
		"target":34963
	},
	{
		"buffer":8,
		"byteOffset":5376,
		"byteLength":5400,
		"target":34962
	},
	{
		"buffer":9,
		"byteOffset":0,
		"byteLength":5376,
		"target":34963
	},
	{
		"buffer":9,
		"byteOffset":5376,
		"byteLength":5400,
		"target":34962
	},
	{
		"buffer":10,
		"byteOffset":0,
		"byteLength":5376,
		"target":34963
	},
	{
		"buffer":10,
		"byteOffset":5376,
		"byteLength":5400,
		"target":34962
	},
	{
		"buffer":11,
		"byteOffset":0,
		"byteLength":5376,
		"target":34963
	},
	{
		"buffer":11,
		"byteOffset":5376,
		"byteLength":5400,
		"target":34962
	},
	{
		"buffer":12,
		"byteOffset":0,
		"byteLength":5376,
		"target":34963
	},
	{
		"buffer":12,
		"byteOffset":5376,
		"byteLength":5400,
		"target":34962
	},
	{
		"buffer":13,
		"byteOffset":0,
		"byteLength":5376,
		"target":34963
	},
	{
		"buffer":13,
		"byteOffset":5376,
		"byteLength":5400,
		"target":34962
	},
	{
		"buffer":14,
		"byteOffset":0,
		"byteLength":5376,
		"target":34963
	},
	{
		"buffer":14,
		"byteOffset":5376,
		"byteLength":5400,
		"target":34962
	},
	{
		"buffer":15,
		"byteOffset":0,
		"byteLength":5376,
		"target":34963
	},
	{
		"buffer":15,
		"byteOffset":5376,
		"byteLength":5400,
		"target":34962
	}],
	"buffers":[{
		"uri":"data:application/octet-stream;base64,",
		"byteLength":65880
	},
	{
		"uri":"data:application/octet-stream;base64,",
		"byteLength":10776
	},
	{
		"uri":"data:application/octet-stream;base64,",
		"byteLength":10776
	},
	{
		"uri":"data:application/octet-stream;base64,",
		"byteLength":10776
	},
	{
		"uri":"data:application/octet-stream;base64,",
		"byteLength":10776
	},
	{
		"uri":"data:application/octet-stream;base64,",
		"byteLength":10776
	},
	{
		"uri":"data:application/octet-stream;base64,",
		"byteLength":10776
	},
	{
		"uri":"data:application/octet-stream;base64,",
		"byteLength":10776
	},
	{
		"uri":"data:application/octet-stream;base64,",
		"byteLength":10776
	},
	{
		"uri":"data:application/octet-stream;base64,",
		"byteLength":10776
	},
	{
		"uri":"data:application/octet-stream;base64,",
		"byteLength":10776
	},
	{
		"uri":"data:application/octet-stream;base64,",
		"byteLength":10776
	},
	{
		"uri":"data:application/octet-stream;base64,",
		"byteLength":10776
	},
	{
		"uri":"data:application/octet-stream;base64,",
		"byteLength":10776
	},
	{
		"uri":"data:application/octet-stream;base64,",
		"byteLength":10776
	},
	{
		"uri":"data:application/octet-stream;base64,",
		"byteLength":10776
	}],
	"materials":[{
		"pbrMetallicRoughness":{
			"baseColorFactor":[0.18949946761131288,
			0.06427348405122757,
			9.313225746154786e-10,
			1.0],
			"metallicFactor":0.0,
			"roughnessFactor":0.7270000345306471
		},
		"emissiveFactor":[0.0,
		0.0,
		0.0],
		"alphaMode":"OPAQUE",
		"doubleSided":false,
		"name":"Brown"
	},
	{
		"pbrMetallicRoughness":{
			"baseColorFactor":[0.0069993482902646069,
			0.7101022601127625,
			0.04997623711824417,
			1.0],
			"metallicFactor":0.0,
			"roughnessFactor":0.7270000345306471
		},
		"emissiveFactor":[0.0,
		0.0,
		0.0],
		"alphaMode":"OPAQUE",
		"doubleSided":false,
		"name":"Green-light"
	},
	{
		"pbrMetallicRoughness":{
			"baseColorFactor":[0.012680456973612309,
			0.49426645040512087,
			0.0506124421954155,
			1.0],
			"metallicFactor":0.0,
			"roughnessFactor":0.7270000345306471
		},
		"emissiveFactor":[0.0,
		0.0,
		0.0],
		"alphaMode":"OPAQUE",
		"doubleSided":false,
		"name":"Green-medium"
	},
	{
		"pbrMetallicRoughness":{
			"baseColorFactor":[0.028935495764017106,
			0.2944466769695282,
			0.05977771058678627,
			1.0],
			"metallicFactor":0.0,
			"roughnessFactor":0.7270000345306471
		},
		"emissiveFactor":[0.0,
		0.0,
		0.0],
		"alphaMode":"OPAQUE",
		"doubleSided":false,
		"name":"Green-dark"
	}]
}